<svg width="543" height="335" xmlns="http://www.w3.org/2000/svg">
 <title>Contrario</title>
 <g id="Layer_1">
  <title>Layer 1</title>
  <ellipse ry="3.71844" rx="3.71844" id="svg_12" cy="444.38866" cx="273" stroke-width="0" stroke="#000" fill="#000000"/>
  <line transform="rotate(90, 273, 444.49)" id="svg_13" y2="444.49039" x2="370.70386" y1="444.49039" x1="175.29612" stroke="#ff0000" fill="none"/>
  <path id="svg_14" d="m272.99979,541.10189c-105.95768,0 -191.7834,-43.28054 -191.7834,-96.7133c0,-53.43276 85.82572,-96.7133 191.7834,-96.7133c105.95768,0 191.7834,43.28054 191.7834,96.7133c0,53.43276 -85.82572,96.7133 -191.7834,96.7133z" opacity="undefined" stroke-width="6" stroke="#000" fill="none"/>
  <ellipse ry="3.71844" rx="3.71844" id="svg_18" cy="167.49999" cx="271.5" stroke-width="0" stroke="#0f0f00" fill="#000000"/>
  <line transform="rotate(90, 271.5, 167.5)" id="svg_19" y2="167.5" x2="369.20387" y1="167.5" x1="173.79613" stroke="#0f0f00" fill="none"/>
  <path id="svg_20" d="m271.57902,263.46594c-105.95768,0 -191.7834,-43.28054 -191.7834,-96.7133c0,-53.43276 85.82572,-96.7133 191.7834,-96.7133c105.95768,0 191.7834,43.28054 191.7834,96.7133c0,53.43276 -85.82572,96.7133 -191.7834,96.7133z" opacity="undefined" stroke-width="6" stroke="#0f0f00" fill="none"/>
  <line id="svg_26" y2="96.18587" x2="393.51289" y1="238.76622" x1="149.12654" stroke="#ff7f27" fill="none"/>
  <line id="svg_30" y2="96.18587" x2="149.15839" y1="238.76622" x1="393.45269" stroke="#ff7f27" fill="none"/>
  <line id="svg_32" y2="96.41348" x2="392.92294" y1="96.41348" x1="149.36983" stroke="#ff7f27" fill="none"/>
  <line id="svg_33" y2="238.67934" x2="392.92294" y1="238.67934" x1="149.36983" stroke="#ff7f27" fill="none"/>
  <path id="svg_41" d="m163.11559,90.4883" opacity="NaN" stroke-width="6" stroke="#ff7f27" fill="none"/>
  <path transform="translate(917.6695610840211,566.1497292138988)" id="svg_43" d="m402.76068,85.45871c-0.29586,0 0,2.66272 -0.09777,2.41115c0.09777,0.25157 10.4528,0.54743 5.71907,0.84329c-4.73373,0.29586 -5.32545,-3.25444 -5.6213,-3.25444z" opacity="NaN" stroke-width="6" stroke="#ff7f27" fill="none"/>
  <path id="svg_45" d="m402.46482,86.05043" opacity="NaN" stroke-width="6" stroke="#ff7f27" fill="none"/>
  <line id="svg_69" y2="200.10845" x2="318.12003" y1="193.81917" x1="322.52255" stroke="#ff7f27" fill="none"/>
  <line id="svg_70" y2="197.9072" x2="314.66093" y1="191.61792" x1="319.06344" stroke="#ff7f27" fill="none"/>
  <path stroke-width="4" id="svg_50" d="m337.74272,140.75221l62.27788,-39.3437c4.57639,-4.48216 4.59674,-10.36925 1.1687,-13.56256c-3.42804,-3.19331 -7.1821,-3.23406 -11.61997,-3.82578c-4.43787,-0.59172 -228.52475,0.25511 -237.10463,1.14268c-8.57989,0.88757 -13.60947,1.77515 -16.56806,5.6213c-2.95858,3.84616 -0.88757,7.69231 1.47929,10.65089c109.17166,65.97637 258.72422,130.25832 262.66513,133.26478c3.94091,3.00646 3.4905,6.49406 1.6177,9.3796c-1.8728,2.88553 -8.78365,3.60084 -15.31291,4.40691c-6.52926,0.80607 -228.1318,2.57566 -234.17702,-0.00979c-6.04522,-2.58545 -11.16131,-7.57851 -7.10772,-14.88154c4.05359,-7.30303 40.85064,-14.41924 46.7678,-16.19439c5.91716,-1.77515 25.66078,-7.07652 35.6222,-12.65354" opacity="NaN" stroke="#a8a19c" fill="none"/>
  <path id="svg_54" d="m252.00782,150.7838" opacity="NaN" stroke-width="4" stroke="#ff7f27" fill="none"/>
  <line opacity="NaN" id="svg_55" y2="205.63459" x2="226.63467" y1="220.55997" x1="217.3063" stroke-width="4" stroke="#a8a19c" fill="none"/>
  <line opacity="NaN" id="svg_56" y2="203.76891" x2="208.35107" y1="204.88832" x1="226.26153" stroke-width="4" stroke="#a8a19c" fill="none"/>
  <line opacity="NaN" id="svg_57" y2="140.33603" x2="339.32131" y1="155.63455" x1="332.97802" stroke-width="4" stroke="#a8a19c" fill="none"/>
  <line opacity="NaN" id="svg_60" y2="141.0823" x2="321.03772" y1="139.21663" x1="339.69445" stroke-width="4" stroke="#a8a19c" fill="none"/>
  <line id="svg_62" y2="145.70617" x2="317.17663" y1="139.41689" x1="313.40307" stroke="#ff7f27" fill="none"/>
  <line id="svg_63" y2="143.19046" x2="320.00681" y1="136.90118" x1="316.23324" stroke="#ff7f27" fill="none"/>
  <line id="svg_64" y2="145.70617" x2="317.17663" y1="139.41689" x1="313.40307" stroke="#ff7f27" fill="none"/>
  <line id="svg_65" y2="147.27849" x2="230.69903" y1="140.98921" x1="235.10155" stroke="#ff7f27" fill="none"/>
  <line id="svg_66" y2="145.07725" x2="227.23993" y1="138.78797" x1="231.64245" stroke="#ff7f27" fill="none"/>
  <line id="svg_71" y2="192.56132" x2="234.78705" y1="186.27204" x1="231.01349" stroke="#ff7f27" fill="none"/>
  <line id="svg_72" y2="195.07703" x2="231.95688" y1="188.78775" x1="228.18331" stroke="#ff7f27" fill="none"/>
 </g>
</svg>