<svg width="546" height="599" xmlns="http://www.w3.org/2000/svg">
 <title>Opuesto</title>
 <g id="Layer_1">
  <title>Layer 1</title>
  <ellipse ry="3.71844" rx="3.71844" id="svg_9" cy="163.90038" cx="273" stroke-width="0" stroke="#000" fill="#000000"/>
  <line id="svg_6" y2="163.9004" x2="464.47003" y1="163.9004" x1="81.52998" stroke="#ff0000" fill="none"/>
  <path id="svg_5" d="m272.99979,260.61403c-105.95768,0 -191.7834,-43.28054 -191.7834,-96.7133c0,-53.43276 85.82572,-96.7133 191.7834,-96.7133c105.95768,0 191.7834,43.28054 191.7834,96.7133c0,53.43276 -85.82572,96.7133 -191.7834,96.7133z" opacity="undefined" stroke-width="6" stroke="#000" fill="none"/>
  <ellipse ry="3.71844" rx="3.71844" id="svg_12" cy="444.38866" cx="273" stroke-width="0" stroke="#000" fill="#000000"/>
  <line transform="rotate(90, 273, 444.49)" id="svg_13" y2="444.49039" x2="370.70386" y1="444.49039" x1="175.29612" stroke="#ff0000" fill="none"/>
  <path id="svg_14" d="m272.99979,541.10189c-105.95768,0 -191.7834,-43.28054 -191.7834,-96.7133c0,-53.43276 85.82572,-96.7133 191.7834,-96.7133c105.95768,0 191.7834,43.28054 191.7834,96.7133c0,53.43276 -85.82572,96.7133 -191.7834,96.7133z" opacity="undefined" stroke-width="6" stroke="#000" fill="none"/>
 </g>
</svg>