<svg version="1.2" xmlns="http://www.w3.org/2000/svg" viewBox="0 0 60 62" width="60" height="62">
	<title>Nuevo proyecto</title>
	<style>
		.s0 { fill: #ff0000;stroke: #3e3828;stroke-width: .1 } 
	</style>
	<path id="Forma 4" fill-rule="evenodd" class="s0" d="m44.6 13.1c11.9 4.2 16.1 16.7 14 28.4-1.9 10.1-18 27.7-29.4 19.2-5.5-4-7-13.4-9.9-19.3-1.4-2.7-3.1-4.8-5.4-6.8-0.5-0.4 18.5-25.8 30.7-21.5z"/>
	<path id="Forma 5" fill-rule="evenodd" class="s0" d="m10.1 40.1c3.5 3.5 12.4 17.5 4.6 21.3-2.9 1.4-5.8-0.9-7.3-3.2-3.2-4.6-3.2-9.8-3.2-15.1 0-1.7 4.9-4 5.9-3z"/>
	<path id="Forma 6" fill-rule="evenodd" class="s0" d="m-2.3 14.5c4.6-1.1 9.1-3.8 13.5-5.5 2.5-1 5.1-1.7 7.7-2.4 4.1-1.2 17.7-5.7 11.8 3.9-0.5 0.8-1.3 1.7-1.9 2.3-1.1 1.1-2.3 2.1-3.4 3.1-10 8.4-22.3 13.6-27.5 26.3"/>
	<path id="Forma 7" fill-rule="evenodd" class="s0" d="m52.2-4.5c2.6 6 0.2 12.8-6.5 13.3-6.1 0.5-7.7-5.7-12.6-7.5-3.5-1.2-7.5-0.6-10.7-1.8-0.9-0.3-1.1-2.4-0.7-3.1 1.8-3.3 12.4-2 15.6-2.3 3.7-0.3 7.3-0.4 11.1-0.5"/>
	<path id="Forma 8" fill-rule="evenodd" class="s0" d="m60.8-3.4c6.4 2.8 5.6 9.3 5 15.4-0.3 2.8-0.6 6.9-3.1 8.8-2.4 1.9-4.9-2.2-5.9-3.7-4.2-6.1 1.5-11.8 1.5-18.8"/>
	<path id="Forma 9" fill-rule="evenodd" class="s0" d="m67.6 46.9c7.6 2 7.2 12.8 3.4 18.2-2.4 3.5-7.6 4.2-11.4 3.4-1.3-0.3-2.7-0.7-3.9-1.3-7.9-3.9 7-15 7-20.1"/>
	<path id="Forma 10" fill-rule="evenodd" class="s0" d="m-4.2 4.8c-0.1-2-1-5.4 0.4-7.1 3.7-4.3 14.7-6.3 20-5.7 3.9 0.5 1.6 6-0.2 7.4-1.5 1.2-3.2 2.2-4.8 3.3-1.9 1.4-3.8 2.8-5.8 3.8-3.5 1.7-7.1 2.6-10.9 3.4"/>
</svg>