<svg version="1.2" xmlns="http://www.w3.org/2000/svg" viewBox="0 0 12 19" width="12" height="19">
	<title>Calle0</title>
	<style>
		.s0 { mix-blend-mode: color;fill: #25517e } 
	</style>
	<path id="Capa 2 copy" fill-rule="evenodd" class="s0" d="m1.6 18.3c-0.2-0.1-1.6-1.3-1.6-1.3v-8c0 0 0.6-1 1-2 0.4-1-0.7-0.7 0-1 0.7-0.3 0.1-1 1-1 0.9 0 3.7 1.1 4 1 0.3-0.1 3.7-0.5 4 0 0.3 0.5 0.9-0.1 1 0 0.1 0.1 0.3 2.8 0 3-0.3 0.2 0.1 2.8 0.1 2.8-0.8 0.2-1.9 1.2-2.7 0.6-0.4-0.3-1.3-2.9-2-2.3-0.9 0.7 1.8 5.3-1.5 4.5-1.2-0.4-1-7.3-3.7-5.3-3.2 2.3 3.1 6.9 0.8 8.7q-0.2 0.2-0.5 0.4m0.7 0.6c0.3-1.1 1.7-0.6 1.5-2.2-0.1-1.1-4.3-5.8-2.2-6.9 0.6-0.3 2.5 5.5 3.4 5.8 3 1 1.4-3.8 2.2-4 0.4-0.1 0.7 2.1 1.2 2.3 1.3 0.5 2.2-1 3.2-1.4 0 0 0.5 2.3 0.5 3.4 0 1.1-4.2 1.7-3 2 1.2 0.3 2 0 2 0 0 0 1.5-0.1-0.3 0.8-1.8 0.9-4.4-2.6-4.7-0.8-0.3 1.8-1.4-0.7-2 0-0.6 0.7-1.8 1-1.8 1z"/>
</svg>