<svg version="1.2" xmlns="http://www.w3.org/2000/svg" viewBox="0 0 40 20" width="40" height="20">
	<title>Nuevo proyecto</title>
	<style>
		.s0 { fill: none;stroke: #000000;stroke-width: .6 } 
		.s1 { fill: #a87070;stroke: #000000;stroke-width: .6 } 
	</style>
	<path id="Forma 3" class="s0" d="m7 8"/>
	<path id="Forma 4" class="s1" d="m3 7c0 0 7.7-3.1 9-2 1.3 1.1 3.2 1.3 5 2 1.8 0.7 4.5 0.2 6 0 1.5-0.2 2.8-1.9 6-2 3.2-0.1 2.3-0.9 4 1 1.7 1.9 2.7 3.2 3 4 0.3 0.8-0.8 3-2 4-1.2 1-0.2 2.7-5 3-4.8 0.3-6.4 1.1-10 1-3.6-0.1-3.9-0.3-7 0-3.1 0.3-1.9 0.7-5 0-3.1-0.7-5.3-1-4-2 1.3-1 0.8-2.4 3-2 2.2 0.4 2.8-0.4 4 0 1.2 0.4 0.2 0 3 0 2.8 0 2.4 0.3 6 0 3.6-0.3 6.5-0.4 8-1 1.5-0.6 1.8-1.3 2-2 0.2-0.7 3.5-0.5 0-1-3.5-0.5-10.5 1.4-11 0-0.5-1.4-5.4-1.1-7-1-1.6 0.1-4.3 0.5-5 1-0.7 0.5-2.3 0.6-3 0-0.7-0.6-1.7-1.6-1-2 0.7-0.4 1-1 1-1z"/>
</svg>