<svg version="1.2" xmlns="http://www.w3.org/2000/svg" viewBox="0 0 180 120" width="180" height="120">
	<title>Nuevo proyecto</title>
	<style>
		.s0 { fill: #a87070;stroke: #000000;stroke-width: .6 } 
	</style>
	<path id="Forma 1" class="s0" d="m57 60c3.1-5 8.6-2.3 16-3 7.4-0.7 7.4-4.5 10-7 2.6-2.5 3.9-9 3-13-0.9-4 6.4-7.2 10-12 3.6-4.8 8.2 3.4 16 5 7.8 1.6 6.1 4.4 13 6 6.9 1.6 7.9-5.4 9-9 1.1-3.6-3.9-14.7-3-22 0.9-7.3 18.3-3.1 23-1 4.7 2.1 9.5 13.7 8 15-1.5 1.3 3.4 24.7 3 31-0.4 6.3 1.8 12.3 0 17-1.8 4.7-10 9-14 13-4 4-11.6 14.6-19 13-7.4-1.6-10.1 1.3-18 4-7.9 2.7-12.8 3.9-17 6-4.2 2.1-7-5.2-10-2-3 3.2-20 5.6-26 11-6 5.4-25 0-25 0 0 0-5.1-8.7-2-10 3.1-1.3 16.8 5.7 25 3 8.2-2.7 12.4-6.1 20-10 7.6-3.9 11 1.8 18-2 7-3.8 11.3-3.1 27-6 15.7-2.9 12.1-4.2 18-9 5.9-4.8 7.5-6.7 11-10 3.5-3.3 2.6-8 3-15 0.4-7-1-12.3-3-22-2-9.7-0.5-13.5-1-19-0.5-5.5-6.6-5.7-11-7-4.4-1.3-4.9 4.3-3 9 1.9 4.7 3 8 3 8 0 0 0.3 2 0 7-0.3 5-2.4 10.9-5 14-2.6 3.1-5.3 3.4-16 4-10.7 0.6-5.5-4.1-8-7-2.5-2.9-2.6-1.8-6-4-3.4-2.2-7 1-7 1 0 0-6.3 6.7-6 12 0.3 5.3-1.7 7.6-3 11-1.3 3.4-7.7 6.7-11 6-3.3-0.7-5.7 2.9-9 1-3.3-1.9-9 3-9 3 0 0-7.1-5-4-10z"/>
</svg>