<svg version="1.2" xmlns="http://www.w3.org/2000/svg" viewBox="0 0 60 62" width="60" height="62">
	<title>Nuevo proyecto</title>
	<style>
		.s0 { fill: #ff0000;stroke: #3e3828;stroke-width: .1 } 
	</style>
	<path id="Capa 3" fill-rule="evenodd" class="s0" d="m9.3 4.9c1 0.2 0.2 5.2 0.5 6 0.2 0.7 5 2.2 2.6 4-0.5 0.3-6.4 0.4-6.6-0.1-1.3-2.6 1.2-1.2 1.9-2 0.5-0.6 0.1-3.7 0.1-4.4 0-0.7-0.3 1.8-1.1 1.9-1.7 0.3 0-6 2.6-5.4z"/>
	<path id="Forma 1" fill-rule="evenodd" class="s0" d="m24.3 5.3c2.5 3-1 4.6-2.1 6.8-0.1 0.1 2.4 0 2.6 0.2 0.3 0.2 0.3 2 0 2.2-0.5 0.2-1.5 0-2.1 0-0.7 0-2 0.4-2.6 0.2-0.5-0.1-0.5-1.6-0.5-2 0-2.1 3.7-2.7 3.4-4.8-0.1-0.9-2.3 0.7-2.9 0.4-1.4-0.6 3.4-3.9 4.2-3z"/>
	<path id="Forma 2" fill-rule="evenodd" class="s0" d="m40.6 4.4c2.7 1.7-1.7 3.8-1.2 4.4 0.5 0.6 2.7-0.4 3.4-0.1 2 0.7 1 4.1-0.1 5.1-0.8 0.6-5.1 2.5-5.7 0.9-1.4-3.8 4.4-0.1 4.4-3.1-0.1-0.9-3.5-0.6-4.3-1.4-1.4-1.6 1.9-3.4 1.7-3.6-0.5-0.5-2.2 0-2.9-0.1-0.2 0 3.5-2.9 4.7-2.1z"/>
	<path id="Forma 3" fill-rule="evenodd" class="s0" d="m53.1 13.8c-0.8-0.6 0.6-3.1-0.3-3.8-2.9-2.1-5.5 2.4-5.5-3.1 0-0.4-0.2-1.3 0.2-1.7 3.1-3.4 3.1 2 4.1 2.2 0.4 0 1.4 0.1 1.7-0.1 0.5-0.3-0.2-1.7 0.3-2.1 0.3-0.2 1.6-0.3 1.7 0.1 0.5 1.4-2.2 8.6-2.2 8.5z"/>
	<path id="Forma 4" fill-rule="evenodd" class="s0" d="m8.4 30.4c0.3 0 3.6 2.1 3.8 0.8 0.4-1.7-2.3-0.8-2.8-1.5-0.7-1.1-0.4-3.3-0.3-4.6 0.1-0.9 3.9-1 4.5-0.5 1.7 1.3-2.7 1.7-2.6 2.9 0 0.4 7.6 2.2 2.8 5.2-1.4 0.9-3.4 1-4.8 0.4-0.9-0.4-1.4-2.6-0.6-2.7z"/>
	<path id="Forma 5" fill-rule="evenodd" class="s0" d="m22.8 25.3c0.3 0.5 1.6 3.1 2.1 2.9 0.5-0.3 0.7-5.1 2.5-3.4 0.9 0.8-1.4 5.7-1.8 6.5-0.1 0.2-0.6 1.6-0.9 1.5-0.4-0.1-1.9-5.7-2.1-6.2-0.4-0.7-0.1-1.8 0.2-1.3z"/>
	<path id="Forma 6" fill-rule="evenodd" class="s0" d="m30.9 26c0.5 0.4 0.1 3.4 0.1 3.9 0 0.4 0.4 2.7-0.3 2.8-3 0.5-1.5-2.5-1.4-4.5 0.1-0.3 1.3-2.4 1.6-2.2z"/>
	<path id="Forma 7" fill-rule="evenodd" class="s0" d="m42.2 33.1c-0.4-0.1-2.7-0.1-2.6-0.4 0.1-1.3 2.6-4.3 2.1-5.5-0.4-0.9-3.4 0.2-3.4-0.5 0.1-2.7 1.8-2 4.1-2 0.8 0 1.8-0.5 2.2 0.1 0.4 0.4-0.7 1.8-0.9 2.1-1.4 1.9-2.3 4.3-3.8 6.2"/>
	<path id="Forma 8" fill-rule="evenodd" class="s0" d="m51.4 32.5c-1.2-1.9 2.5-4.3 2.1-4.8-0.1-0.2-1.8 0.1-2.2 0-2.4-0.9-1.3-4.4 0.8-5 5.2-1.4 2.9 2 3.8 4.3 0.7 1.7 2.8 1.1 2.1 4.2-0.2 0.8-5.8 2.5-6.6 1.3z"/>
	<path id="Forma 9" fill-rule="evenodd" class="s0" d="m7.4 47.9c0.6 0 2.3-0.3 2.7 0.3 0.8 1.5 0.6 7.3-1.5 7.4-0.7 0.1-0.5-1.1-0.6-1.5 0-2.4-0.2-5.1 0.2-7.5"/>
	<path id="Forma 10" fill-rule="evenodd" class="s0" d="m14.6 47.6c0.7 0.1 1.7 1.5 2.4 1.3 1.5-0.4 2.3-3.4 4.4-1.5 0.5 0.4-2.9 2.7-2.5 3.6 0.2 0.5 2.7 2.9 2.3 3.4-2.4 2.6-3.2-2-4.3-2-0.2 0-1.2 1.8-1.5 2.1-0.3 0.2-2.1-0.2-2.2-0.5-0.1-1.1 1.9-1.8 1.8-2.9-0.2-0.8-1.2-1.7-1.8-2.3-0.2-0.2 0.8-1.4 1.4-1.2z"/>
	<path id="Forma 11" fill-rule="evenodd" class="s0" d="m26.9 46.4c0.9 0.8 0 3.9 0.4 5.1 0.1 0.5 1.1 0 1.5 0.3 0.3 0.3 0.3 2.8-0.1 3-0.4 0.2-2.9 0.3-3.1-0.1-1.4-2.6 1.7-2.4 0.7-4.6-0.4-1-0.9 1-1.3 0.3-0.4-0.6 1.5-4.4 1.9-4z"/>
	<path id="Forma 12" fill-rule="evenodd" class="s0" d="m33 47.5c-2 1.6-0.9 7.1 2 7.1 3.3 0.1-1.3-7.6-2-7.1z"/>
	<path id="Forma 13" fill-rule="evenodd" class="s0" d="m42.8 47.1c0.8 0.4 0.2 4.3 0.3 5.3 0.1 0.2 3.9 2.4 1.9 3.2-0.4 0.3-1.4 0.1-1.9 0.1-4.9 0-0.6-2.8-1.1-6.1-0.1-0.5-0.9 0.6-1.1 0.6-0.6 0.1 0.9-3.5 1.9-3.1z"/>
	<path id="Forma 14" fill-rule="evenodd" class="s0" d="m49.5 47.2c0.8 0.6 0 4.2 0.1 5.1 0.1 0.1 3.1 2 1.3 2.7-0.4 0.2-1 0.1-1.4 0.1-5 0 0.5-3.3-1-6.3-0.1-0.1-0.9 1.2-1.2 1.2-0.8 0 1.2-3.7 2.2-2.8z"/>
	<path id="Forma 15" fill-rule="evenodd" class="s0" d="m57.5 50.7c-1 0.1-0.8-2.4 0-3.1 0.3-0.2 1.8 0.8 2 1 1.8 1.7 0.7 7-2.4 6.3-3-0.7-3.3-4.9-1.4-7 0.7-0.7 2.2 2.7 1.8 2.8z"/>
</svg>